<svg width="35" height="35" viewBox="0 0 35 35" fill="none" xmlns="http://www.w3.org/2000/svg">
<path fill-rule="evenodd" clip-rule="evenodd" d="M32.0833 17.5C32.0833 25.5541 25.554 32.0834 17.5 32.0834C9.4458 32.0834 2.91663 25.5541 2.91663 17.5C2.91663 9.44586 9.4458 2.91669 17.5 2.91669C25.554 2.91669 32.0833 9.44586 32.0833 17.5ZM23.3775 13.0808C23.8046 13.5079 23.8046 14.2005 23.3775 14.6275L16.0858 21.9192C15.6587 22.3464 14.9663 22.3464 14.5391 21.9192L11.6224 19.0025C11.1953 18.5754 11.1953 17.883 11.6224 17.4558C12.0495 17.0287 12.7421 17.0287 13.1692 17.4558L15.3125 19.599L18.5715 16.3399L21.8308 13.0808C22.2579 12.6537 22.9503 12.6537 23.3775 13.0808Z" fill="#D8FF7E"/>
</svg>
